# xmcd CD database file generated by MAGIX-FreeDB-PlayR v2.0beta1
# 
# Track frame offsets:
#      150
#      23678
#      42975
#      58570
#      77943
#      99866
#      121602
#      137619
#      159132
#      180624
#      198737
#      233046
# 
# Disc length: 3447 seconds
# 
# Revision: 2 
# Processed by: cddbd v1.5.2PL0 Copyright (c) Steve Scherf et al.
# Submitted via: MAGIX-FreeDB-PlayR v2.0beta1
# 
DISCID=8c0d750c
DTITLE=Hamburg Blues Band - Mad Dog Blues
DYEAR=2009
DGENRE=Blues
TTITLE0=Hamburg Blues Band - Bad To The Bone
TTITLE1=Hamburg Blues Band - Can`t Last Forever
TTITLE2=Hamburg Blues Band - Wishing Well
TTITLE3=Hamburg Blues Band - Into The Night
TTITLE4=Hamburg Blues Band - Birds Go Crazy
TTITLE5=Hamburg Blues Band - It Ain`t Right
TTITLE6=Hamburg Blues Band - Weird
TTITLE7=Hamburg Blues Band - Easy As That
TTITLE8=Hamburg Blues Band - Trouble Man
TTITLE9=Hamburg Blues Band - Don`t Wanna Sing The Blues
TTITLE10=Hamburg Blues Band - Sing The Blues For You
TTITLE11=Hamburg Blues Band - All Or Nothing
EXTD=YEAR: 2009
EXTT0=
EXTT1=
EXTT2=
EXTT3=
EXTT4=
EXTT5=
EXTT6=
EXTT7=
EXTT8=
EXTT9=
EXTT10=
EXTT11=
PLAYORDER=
